<svg width="60" height="60" viewBox="0 0 60 60" fill="none" xmlns="http://www.w3.org/2000/svg">
<path d="M47.2275 2.0625H12.7744C9.93448 2.06597 7.21189 3.19566 5.20377 5.20377C3.19566 7.21189 2.06597 9.93448 2.0625 12.7744V47.2275C2.06597 50.0671 3.1954 52.7894 5.20311 54.7974C7.21082 56.8055 9.93293 57.9354 12.7725 57.9394H47.2256C50.0654 57.9359 52.7877 56.8062 54.7956 54.798C56.8034 52.7898 57.9326 50.0672 57.9356 47.2275V12.7744C57.9331 9.93482 56.8043 7.21222 54.7968 5.204C52.7893 3.19578 50.0671 2.06598 47.2275 2.0625ZM54.5625 47.2275C54.56 49.1724 53.7862 51.037 52.4107 52.412C51.0353 53.7871 49.1706 54.5605 47.2256 54.5625H12.7744C10.8294 54.5605 8.96472 53.7871 7.58928 52.412C6.21383 51.037 5.43998 49.1724 5.4375 47.2275V12.7744C5.43949 10.8291 6.21311 8.96412 7.58861 7.58861C8.96412 6.21311 10.8291 5.43949 12.7744 5.4375H47.2275C49.1724 5.43948 51.0372 6.21286 52.4126 7.58795C53.788 8.96305 54.5619 10.8276 54.5644 12.7725L54.5625 47.2275Z" fill="url(#paint0_linear_19607_771)"/>
<path d="M29.9995 14.0947C22.5502 14.0947 16.4883 20.1547 16.4883 27.6041C16.4883 35.8391 25.5145 43.2566 28.2858 45.336C28.7977 45.7185 29.3977 45.9116 29.9977 45.9116C30.5977 45.9116 31.2014 45.7185 31.7152 45.3341C34.4827 43.2566 43.5089 35.8391 43.5089 27.6041C43.5108 20.1547 37.4489 14.0947 29.9995 14.0947ZM29.9995 42.3997C25.042 38.601 19.8633 32.7941 19.8633 27.6022C19.8633 22.0147 24.4102 17.4697 29.9995 17.4697C35.5889 17.4697 40.1358 22.0147 40.1358 27.6022C40.1358 32.796 34.9552 38.6029 29.9995 42.3997Z" fill="url(#paint1_linear_19607_771)"/>
<path d="M29.9995 24.2959C29.5915 24.2959 29.1874 24.3763 28.8105 24.5324C28.4336 24.6885 28.0911 24.9174 27.8026 25.2059C27.5141 25.4944 27.2852 25.8369 27.1291 26.2138C26.9729 26.5908 26.8926 26.9948 26.8926 27.4028C26.8926 27.8108 26.9729 28.2148 27.1291 28.5917C27.2852 28.9687 27.5141 29.3112 27.8026 29.5997C28.0911 29.8882 28.4336 30.117 28.8105 30.2732C29.1874 30.4293 29.5915 30.5096 29.9995 30.5096C30.8234 30.5096 31.6137 30.1823 32.1963 29.5997C32.779 29.017 33.1063 28.2268 33.1063 27.4028C33.1063 26.5788 32.779 25.7885 32.1963 25.2059C31.6137 24.6232 30.8234 24.2959 29.9995 24.2959Z" fill="url(#paint2_linear_19607_771)"/>
<defs>
<linearGradient id="paint0_linear_19607_771" x1="2.0625" y1="30.0009" x2="57.9356" y2="30.0009" gradientUnits="userSpaceOnUse">
<stop stop-color="#6DA015"/>
<stop offset="1" stop-color="#46C0A2"/>
</linearGradient>
<linearGradient id="paint1_linear_19607_771" x1="16.4883" y1="30.0032" x2="43.5089" y2="30.0032" gradientUnits="userSpaceOnUse">
<stop stop-color="#6DA015"/>
<stop offset="1" stop-color="#46C0A2"/>
</linearGradient>
<linearGradient id="paint2_linear_19607_771" x1="26.8926" y1="27.4028" x2="33.1063" y2="27.4028" gradientUnits="userSpaceOnUse">
<stop stop-color="#6DA015"/>
<stop offset="1" stop-color="#46C0A2"/>
</linearGradient>
</defs>
</svg>
