<svg width="56" height="56" viewBox="0 0 56 56" fill="none" xmlns="http://www.w3.org/2000/svg">
<g clip-path="url(#clip0_19607_758)">
<path d="M41.2445 37.1186C41.2204 36.6362 40.8103 36.2677 40.3279 36.2884C39.8456 36.3125 39.4737 36.7227 39.4978 37.205L39.535 37.9509L36.1695 34.5986C37.6307 32.7939 38.5079 30.497 38.5079 28C38.5079 25.3323 37.5082 22.8944 35.8643 21.0394L39.4595 17.4278L39.5175 18.5927C39.5404 19.0608 39.9265 19.4239 40.3903 19.4239C40.4045 19.4239 40.4198 19.4239 40.434 19.4228C40.9164 19.3987 41.2882 18.9886 41.2642 18.5062L41.1122 15.4339C41.0881 14.9516 40.6768 14.583 40.1967 14.6037L37.1243 14.7525C36.642 14.7755 36.2701 15.1856 36.2931 15.668C36.3161 16.1503 36.7262 16.5233 37.2086 16.4992L37.9523 16.4631L34.6011 19.8297C32.7964 18.3684 30.4995 17.4923 28.0014 17.4923C25.3337 17.4923 22.8957 18.492 21.0407 20.1359L17.4314 16.5408L18.594 16.4828C19.0764 16.4587 19.4482 16.0486 19.4242 15.5662C19.4001 15.0839 18.99 14.7164 18.5076 14.7361L15.4353 14.8881C14.9529 14.9122 14.5811 15.3223 14.6051 15.8047L14.7572 18.877C14.7801 19.3452 15.1662 19.7083 15.63 19.7083C15.6442 19.7083 15.6595 19.7083 15.6737 19.7072C16.1561 19.6831 16.5279 19.273 16.5039 18.7906L16.4667 18.048L19.8311 21.3992C18.3698 23.2039 17.4937 25.5008 17.4937 27.9989C17.4937 30.6666 18.4945 33.1045 20.1384 34.9584L16.5422 38.5678L16.4842 37.4019C16.4601 36.9195 16.05 36.5498 15.5676 36.5717C15.0853 36.5958 14.7134 37.0059 14.7375 37.4883L14.8895 40.5639C14.9125 41.032 15.2986 41.3952 15.7623 41.3952C15.7765 41.3952 15.7918 41.3952 15.8061 41.3941L18.8817 41.242C19.364 41.218 19.7359 40.8078 19.7118 40.3255C19.6878 39.8431 19.2776 39.4745 18.7953 39.4953L18.0493 39.5325L21.4017 36.167C23.2064 37.6272 25.5022 38.5033 28.0003 38.5033C30.6668 38.5033 33.1048 37.5047 34.9598 35.8619L38.5681 39.4559L37.4076 39.5117C36.9253 39.5347 36.5534 39.9448 36.5764 40.4272C36.5872 40.6514 36.6839 40.8629 36.8464 41.0178C37.0089 41.1728 37.2247 41.2593 37.4492 41.2595C37.4634 41.2595 37.4776 41.2595 37.4918 41.2584L40.5642 41.1097C40.7961 41.0987 41.0137 40.9959 41.1701 40.8231C41.2473 40.7381 41.3069 40.6387 41.3456 40.5306C41.3842 40.4225 41.4012 40.3078 41.3954 40.1931L41.2445 37.1186ZM28.0003 36.7555C23.1703 36.7555 19.2415 32.8278 19.2415 28C19.2415 23.17 23.1703 19.2412 28.0003 19.2412C32.8303 19.2412 36.759 23.17 36.759 28C36.759 32.8278 32.8303 36.7555 28.0003 36.7555ZM33.1223 22.0041H22.8782C22.3948 22.0041 22.0043 22.3956 22.0043 22.878V33.122C22.0043 33.6055 22.3959 33.9959 22.8782 33.9959H33.1223C33.6057 33.9959 33.9962 33.6044 33.9962 33.122V22.878C33.9962 22.3956 33.6047 22.0041 33.1223 22.0041ZM26.9557 23.753H29.0448V25.4439L28.4214 25.1016C28.2924 25.0305 28.1475 24.9933 28.0003 24.9933C27.853 24.9933 27.7082 25.0305 27.5792 25.1016L26.9557 25.4439V23.753ZM32.2473 32.247H23.7522V23.7519H25.2057V26.9205C25.2057 27.0724 25.2452 27.2217 25.3204 27.3537C25.3956 27.4856 25.5039 27.5958 25.6346 27.6731C25.7653 27.7505 25.9139 27.7925 26.0658 27.795C26.2177 27.7975 26.3676 27.7603 26.5007 27.6872L27.9992 26.8647L29.4976 27.6872C29.6289 27.7594 29.7733 27.7955 29.9187 27.7955C30.0729 27.7955 30.2272 27.755 30.3639 27.6741C30.4946 27.5967 30.6028 27.4866 30.678 27.3547C30.7532 27.2227 30.7927 27.0734 30.7926 26.9216V23.753H32.2462V32.247H32.2473ZM47.9875 18.9722C48.0696 19.0694 48.1719 19.1474 48.2874 19.2009C48.4028 19.2543 48.5285 19.2819 48.6558 19.2817C48.9128 19.2817 49.1578 19.168 49.324 18.9711L49.5045 18.7578C51.949 15.8627 56.0407 11.0173 56.0014 7.26687C55.9795 5.32656 55.2172 3.50656 53.8543 2.14484C52.4697 0.762344 50.6245 0 48.6547 0C46.687 0 44.8407 0.76125 43.4528 2.14484C42.0889 3.51203 41.3276 5.33203 41.309 7.26687C41.2697 11.0261 45.3723 15.8802 47.8245 18.7797L47.9875 18.9722ZM44.6898 3.38187C45.7453 2.32859 47.1529 1.74891 48.6547 1.74891C50.1564 1.74891 51.5629 2.32859 52.6151 3.38078C53.6531 4.41875 54.2339 5.80562 54.2503 7.28656C54.2809 10.1631 50.8553 14.4298 48.6536 17.0516C46.4442 14.4233 43.0273 10.1642 43.0579 7.28547C43.0732 5.80891 43.6529 4.42203 44.6898 3.38187ZM52.8251 7.34562C52.8251 5.04656 50.9548 3.17516 48.6547 3.17516C46.3545 3.17516 44.4842 5.04547 44.4842 7.34562C44.4842 9.64469 46.3545 11.5161 48.6547 11.5161C50.9548 11.5161 52.8251 9.64469 52.8251 7.34562ZM46.2342 7.34562C46.2342 6.01016 47.3203 4.92406 48.6558 4.92406C49.9912 4.92406 51.0773 6.01016 51.0773 7.34562C51.0773 8.68109 49.9912 9.76719 48.6558 9.76719C47.3203 9.76719 46.2342 8.68 46.2342 7.34562ZM48.6547 36.7183C46.687 36.7183 44.8407 37.4795 43.4528 38.8631C42.0889 40.2303 41.3276 42.0503 41.309 43.9852C41.2697 47.7444 45.3723 52.5984 47.8245 55.498L47.9853 55.6894C48.0674 55.7865 48.1697 55.8646 48.2852 55.9181C48.4006 55.9715 48.5263 55.9991 48.6536 55.9989C48.9106 55.9989 49.1556 55.8852 49.3218 55.6883L49.5023 55.475C51.9468 52.5798 56.0386 47.7345 55.9992 43.9841C55.9773 42.0437 55.215 40.2237 53.8522 38.862C52.4697 37.4795 50.6245 36.7183 48.6547 36.7183ZM48.6547 53.7698C46.4453 51.1416 43.0284 46.8825 43.059 44.0037C43.0732 42.5272 43.6529 41.1403 44.6909 40.1002C45.7464 39.0469 47.154 38.4672 48.6558 38.4672C50.1575 38.4672 51.564 39.0469 52.6162 40.0991C53.6542 41.137 54.235 42.5239 54.2514 44.0048C54.282 46.8814 50.8564 51.147 48.6547 53.7698ZM48.6547 39.8934C46.3556 39.8934 44.4842 41.7637 44.4842 44.0639C44.4842 46.363 46.3545 48.2344 48.6547 48.2344C50.9548 48.2344 52.8251 46.3641 52.8251 44.0639C52.8251 41.7637 50.9548 39.8934 48.6547 39.8934ZM48.6547 46.4844C47.3192 46.4844 46.2331 45.3983 46.2331 44.0628C46.2331 42.7273 47.3192 41.6412 48.6547 41.6412C49.9901 41.6412 51.0762 42.7273 51.0762 44.0628C51.0762 45.3983 49.9901 46.4844 48.6547 46.4844ZM6.67763 18.9711C6.75967 19.0684 6.86199 19.1466 6.97742 19.2003C7.09285 19.2539 7.21861 19.2817 7.34591 19.2817C7.47307 19.2816 7.59868 19.2538 7.71406 19.2004C7.82944 19.1469 7.93184 19.0691 8.01419 18.9722L8.17497 18.7808C10.6272 15.8812 14.7298 11.0272 14.6904 7.26906C14.6718 5.32875 13.9106 3.50875 12.5467 2.14484C11.1631 0.762344 9.31684 0 7.34591 0C5.37716 0 3.53091 0.76125 2.14841 2.14375C0.785594 3.50766 0.0232508 5.32656 0.000282102 7.26797C-0.0390929 11.0184 4.05263 15.8637 6.49716 18.7578L6.67763 18.9711ZM3.38434 3.38078C4.43653 2.32859 5.84309 1.74891 7.34481 1.74891C8.84872 1.74891 10.2564 2.32859 11.3086 3.38078C12.3476 4.41984 12.9262 5.80562 12.9404 7.28656C12.9711 10.1642 9.55309 14.4233 7.34481 17.0516C5.14309 14.4287 1.71747 10.1631 1.74809 7.28656C1.76559 5.80562 2.34638 4.41875 3.38434 3.38078ZM11.5153 7.34562C11.5153 5.04656 9.64497 3.17516 7.34481 3.17516C5.04575 3.17516 3.17434 5.04547 3.17434 7.34562C3.17434 9.64469 5.04466 11.5161 7.34481 11.5161C9.64497 11.515 11.5153 9.64469 11.5153 7.34562ZM7.34591 9.76609C6.01044 9.76609 4.92434 8.68 4.92434 7.34453C4.92434 6.00906 6.01044 4.92297 7.34591 4.92297C8.68138 4.92297 9.76747 6.00906 9.76747 7.34453C9.76638 8.68 8.68028 9.76609 7.34591 9.76609ZM7.34591 36.7183C5.37716 36.7183 3.53091 37.4795 2.14841 38.862C0.785594 40.2248 0.0232508 42.0437 0.000282102 43.9852C-0.0390929 47.7356 4.05263 52.5809 6.49716 55.475L6.67763 55.6883C6.75967 55.7856 6.86199 55.8638 6.97742 55.9175C7.09285 55.9711 7.21861 55.9989 7.34591 55.9989C7.47307 55.9988 7.59868 55.971 7.71406 55.9176C7.82944 55.8641 7.93184 55.7863 8.01419 55.6894L8.17497 55.498C10.6272 52.5984 14.7298 47.7444 14.6904 43.9862C14.6718 42.0459 13.9106 40.2259 12.5467 38.862C11.1631 37.4795 9.31684 36.7183 7.34591 36.7183ZM7.34591 53.7698C5.14419 51.147 1.71856 46.8814 1.74919 44.0048C1.76559 42.5239 2.34638 41.137 3.38434 40.0991C4.43653 39.0469 5.84309 38.4672 7.34481 38.4672C8.84872 38.4672 10.2564 39.0469 11.3086 40.0991C12.3465 41.137 12.9262 42.5239 12.9404 44.0048C12.9722 46.8825 9.55419 51.1405 7.34591 53.7698ZM7.34591 39.8934C5.04684 39.8934 3.17544 41.7637 3.17544 44.0639C3.17544 46.363 5.04575 48.2344 7.34591 48.2344C9.64497 48.2344 11.5164 46.3641 11.5164 44.0639C11.5153 41.7637 9.64497 39.8934 7.34591 39.8934ZM7.34591 46.4844C6.01044 46.4844 4.92434 45.3983 4.92434 44.0628C4.92434 42.7273 6.01044 41.6412 7.34591 41.6412C8.68138 41.6412 9.76747 42.7273 9.76747 44.0628C9.76638 45.3983 8.68028 46.4844 7.34591 46.4844Z" fill="url(#paint0_linear_19607_758)"/>
</g>
<defs>
<linearGradient id="paint0_linear_19607_758" x1="0" y1="27.9995" x2="56.0017" y2="27.9995" gradientUnits="userSpaceOnUse">
<stop stop-color="#6DA015"/>
<stop offset="1" stop-color="#46C0A2"/>
</linearGradient>
<clipPath id="clip0_19607_758">
<rect width="56" height="56" fill="white"/>
</clipPath>
</defs>
</svg>
